<?xml version="1.0" encoding="UTF-8"?>
<!DOCTYPE svg PUBLIC "-//W3C//DTD SVG 1.1//EN" "http://www.w3.org/Graphics/SVG/1.1/DTD/svg11.dtd">
<!-- Creator: CorelDRAW -->
<svg xmlns="http://www.w3.org/2000/svg" xml:space="preserve" width="6.82666in" height="6.82666in" style="shape-rendering:geometricPrecision; text-rendering:geometricPrecision; image-rendering:optimizeQuality; fill-rule:evenodd; clip-rule:evenodd"
viewBox="0 0 6.82666 6.82666"
 xmlns:xlink="http://www.w3.org/1999/xlink">
 <defs>
  <style type="text/css">
   <![CDATA[
    .fil2 {fill:none}
    .fil5 {fill:#0097A7}
    .fil6 {fill:#00ACC1}
    .fil7 {fill:#26C6DA}
    .fil1 {fill:#303F9F}
    .fil0 {fill:#3949AB}
    .fil8 {fill:#4DD0E1}
    .fil3 {fill:#58D9E7}
    .fil4 {fill:#7DE1ED}
   ]]>
  </style>
   <clipPath id="id0">
    <path d="M3.41333 -3.93701e-006c1.88513,0 3.41333,1.5282 3.41333,3.41333 0,1.88513 -1.5282,3.41333 -3.41333,3.41333 -1.88513,0 -3.41333,-1.5282 -3.41333,-3.41333 0,-1.88513 1.5282,-3.41333 3.41333,-3.41333z"/>
   </clipPath>
 </defs>
 <g id="Layer_x0020_1">
  <metadata id="CorelCorpID_0Corel-Layer"/>
  <path class="fil0" d="M3.41333 -3.93701e-006c1.88513,0 3.41333,1.5282 3.41333,3.41333 0,1.88513 -1.5282,3.41333 -3.41333,3.41333 -1.88513,0 -3.41333,-1.5282 -3.41333,-3.41333 0,-1.88513 1.5282,-3.41333 3.41333,-3.41333z"/>
  <g style="clip-path:url(#id0)">
   <g id="_457171544">
    <g>
     <polygon id="_4528298241" class="fil1" points="2.33318,1.95489 6.11945,5.74116 6.12209,5.74478 6.12476,5.74838 6.12748,5.75194 6.13022,5.75548 6.133,5.75899 6.13581,5.76247 6.13866,5.76593 6.14154,5.76935 6.14446,5.77274 6.14741,5.7761 6.15039,5.77944 6.15341,5.78274 6.15646,5.78601 6.15954,5.78925 6.16265,5.79246 2.37638,2.00619 2.37327,2.00298 2.37019,1.99974 2.36714,1.99646 2.36412,1.99317 2.36114,1.98983 2.35819,1.98647 2.35528,1.98307 2.35239,1.97965 2.34955,1.9762 2.34673,1.97272 2.34395,1.96921 2.34121,1.96567 2.3385,1.96211 2.33582,1.95851 "/>
     <polygon id="_452829848" class="fil1" points="3.05328,1.95489 6.83954,5.74116 6.84218,5.74478 6.84486,5.74837 6.84757,5.75194 6.85031,5.75548 6.85309,5.75899 6.85591,5.76247 6.85876,5.76592 6.86164,5.76934 6.86456,5.77273 6.8675,5.77609 6.87049,5.77943 6.8735,5.78273 6.87656,5.786 3.09029,1.99973 3.08724,1.99646 3.08422,1.99316 3.08124,1.98982 3.07829,1.98646 3.07537,1.98307 3.07249,1.97965 3.06964,1.9762 3.06682,1.97272 3.06404,1.96921 3.0613,1.96567 3.05859,1.9621 3.05591,1.95851 "/>
     <polygon id="_452832296" class="fil1" points="3.77337,1.95489 7.55964,5.74117 7.56228,5.74479 7.56496,5.74838 7.56767,5.75194 7.57041,5.75548 7.5732,5.75899 7.57601,5.76247 7.57886,5.76593 7.58174,5.76935 7.58466,5.77274 7.58761,5.7761 7.59059,5.77944 3.80432,1.99317 3.80134,1.98983 3.79839,1.98647 3.79547,1.98307 3.79259,1.97965 3.78974,1.9762 3.78693,1.97272 3.78415,1.96921 3.7814,1.96567 3.77869,1.96211 3.77602,1.95852 "/>
     <polygon id="_452832512" class="fil1" points="4.49348,1.95489 8.27974,5.74116 8.28239,5.74478 8.28506,5.74838 8.28777,5.75194 8.29052,5.75548 8.2933,5.75899 8.29611,5.76247 8.29896,5.76592 8.30184,5.76935 8.30476,5.77274 4.51849,1.98647 4.51557,1.98307 4.51269,1.97965 4.50984,1.9762 4.50703,1.97272 4.50425,1.96921 4.5015,1.96567 4.49879,1.96211 4.49612,1.95851 "/>
     <polygon id="_452832704" class="fil1" points="5.28,1.82219 9.06627,5.60846 9.06627,6.02919 5.28,2.24292 "/>
     <polygon id="_452832536" class="fil1" points="5.28,2.24292 9.06627,6.02919 9.06627,6.07513 5.28,2.28885 "/>
     <polygon id="_452832080" class="fil1" points="5.28,2.28885 9.06627,6.07513 9.06627,6.4415 5.28,2.65523 "/>
     <polygon id="_452832128" class="fil1" points="5.28,2.65523 9.06627,6.4415 9.06627,6.49585 5.28,2.70958 "/>
     <polygon id="_452832440" class="fil1" points="5.28,2.70958 9.06627,6.49585 9.06627,6.90612 5.28,3.11985 "/>
     <polygon id="_452832152" class="fil1" points="5.28,3.11985 9.06627,6.90612 9.06627,6.90817 5.28,3.1219 "/>
     <polygon id="_452832656" class="fil1" points="5.28,3.1219 9.06627,6.90817 9.06627,7.37074 5.28,3.58447 "/>
     <polygon id="_452832680" class="fil1" points="5.28,3.58447 9.06627,7.37074 9.06627,7.37279 5.28,3.58652 "/>
     <polygon id="_452833232" class="fil1" points="5.28,3.58652 9.06627,7.37279 9.06627,7.83537 5.28,4.0491 "/>
     <polygon id="_452833256" class="fil1" points="5.28,4.0491 9.06627,7.83537 9.06627,7.83741 5.28,4.05114 "/>
     <polygon id="_452833160" class="fil1" points="5.28,4.05114 9.06627,7.83741 9.06627,8.79074 5.28,5.00447 "/>
     <polygon id="_452832800" class="fil1" points="1.54779,1.82219 5.33406,5.60846 5.33611,5.61515 5.33826,5.6218 5.3405,5.62841 5.34285,5.63496 5.3453,5.64146 5.34785,5.64793 5.3505,5.65433 5.35324,5.66069 5.35608,5.667 5.35901,5.67325 5.36204,5.67944 5.36516,5.68559 5.36837,5.69168 5.37168,5.69771 5.37507,5.70369 5.37856,5.70961 5.38213,5.71546 5.38579,5.72126 5.38953,5.727 5.39337,5.73268 5.39728,5.73829 5.40128,5.74384 5.40537,5.74933 5.40953,5.75475 5.41378,5.7601 5.4181,5.76539 5.42251,5.7706 5.427,5.77575 5.43156,5.78083 5.43619,5.78583 5.44091,5.79077 5.4457,5.79563 1.65943,2.00936 1.65464,2.0045 1.64993,1.99956 1.64529,1.99456 1.64073,1.98948 1.63624,1.98433 1.63183,1.97911 1.62751,1.97383 1.62326,1.96848 1.6191,1.96306 1.61502,1.95757 1.61102,1.95202 1.6071,1.94641 1.60326,1.94073 1.59952,1.93499 1.59586,1.92919 1.59229,1.92333 1.5888,1.91742 1.58541,1.91144 1.58211,1.90541 1.57889,1.89932 1.57577,1.89317 1.57274,1.88698 1.56981,1.88072 1.56697,1.87442 1.56423,1.86806 1.56159,1.86165 1.55904,1.85519 1.55659,1.84869 1.55424,1.84213 1.55199,1.83553 1.54984,1.82888 "/>
     <polygon id="_452833280" class="fil1" points="5.28,5.00447 9.06627,8.79074 5.33293,8.79074 1.54666,5.00447 "/>
    </g>
    <path id="_457172384" class="fil1" d="M1.65943 2.00936c0.0802874,0.0802677 0.191209,0.129941 0.313701,0.129941 0.122496,0 0.233421,-0.0496732 0.313697,-0.129941 0.0168583,-0.0168583 0.0323622,-0.0350827 0.0463543,-0.0544724 0.0139882,0.0193898 0.0294843,0.0376142 0.0463465,0.0544724 0.0802795,0.0802677 0.191197,0.129941 0.313697,0.129941 0.1225,0 0.233409,-0.0496654 0.313697,-0.129941 0.0168622,-0.0168583 0.0323701,-0.0350827 0.0463543,-0.0544724 0.0139803,0.0193858 0.0294882,0.0376024 0.0463543,0.0544724 0.0802717,0.0802677 0.191193,0.129941 0.313693,0.129941 0.122492,0 0.233417,-0.0496732 0.313697,-0.129941 0.0168622,-0.0168583 0.0323661,-0.0350827 0.0463543,-0.0544685 0.0139882,0.0193858 0.0294921,0.0376102 0.0463543,0.0544685 0.0802795,0.0802677 0.191209,0.129941 0.313709,0.129941 0.122492,0 0.233406,-0.0496732 0.313685,-0.129941 0.0168622,-0.0168701 0.0323701,-0.0350866 0.0463543,-0.0544724 0.0139843,0.0193858 0.0294921,0.0376142 0.0463543,0.0544724 0.0802795,0.0802677 0.191193,0.129941 0.313693,0.129941 0.1225,0 0.233421,-0.0496732 0.313701,-0.129941 0.0514724,-0.0514724 0.0903583,-0.115539 0.111642,-0.187173l0.00113386 0 0 0.420728 0 0.045937 0 0.366378 0 0.0543504 0 0.410268 0 0.00204724 0 0.462575 0 0.00204331 0 0.462583 0 0.00203937 0 0.953335 -3.73334 0 0 -0.953335 0 -0.00203937 0 -0.462583 0 -0.00204331 0 -0.462575 0 -0.00204724 0 -0.410268 0 -0.0543504 0 -0.366378 0 -0.045937 0 -0.420728 0.00112992 0c0.0212795,0.0716339 0.0601654,0.135701 0.111638,0.187173z"/>
   </g>
  </g>
  <path class="fil2" d="M3.41333 -3.93701e-006c1.88513,0 3.41333,1.5282 3.41333,3.41333 0,1.88513 -1.5282,3.41333 -3.41333,3.41333 -1.88513,0 -3.41333,-1.5282 -3.41333,-3.41333 0,-1.88513 1.5282,-3.41333 3.41333,-3.41333z"/>
  <path class="fil3" d="M1.54666 2.24292l0.00112992 0c0.0212795,0.0716339 0.0601654,0.135705 0.111638,0.187173 0.0802874,0.0802677 0.191209,0.129941 0.313701,0.129941 0.122496,0 0.233421,-0.0496732 0.313697,-0.129941 0.0168583,-0.0168583 0.0323622,-0.0350827 0.0463543,-0.0544724 0.0139882,0.0193898 0.0294843,0.0376142 0.0463465,0.0544724 0.0802795,0.0802677 0.191197,0.129941 0.313697,0.129941 0.1225,0 0.233409,-0.0496614 0.313697,-0.129941 0.0168622,-0.0168583 0.0323701,-0.0350827 0.0463543,-0.0544724 0.0139803,0.0193858 0.0294882,0.0376063 0.0463543,0.0544724 0.0802717,0.0802677 0.191193,0.129941 0.313693,0.129941 0.122492,0 0.233417,-0.0496732 0.313697,-0.129941 0.0168622,-0.0168583 0.0323661,-0.0350827 0.0463543,-0.0544685 0.0139882,0.0193858 0.0294921,0.0376102 0.0463543,0.0544685 0.0802795,0.0802677 0.191209,0.129941 0.313709,0.129941 0.122492,0 0.233406,-0.0496732 0.313685,-0.129941 0.0168622,-0.0168661 0.0323701,-0.0350866 0.0463543,-0.0544724 0.0139843,0.0193858 0.0294921,0.0376142 0.0463543,0.0544724 0.0802795,0.0802677 0.191193,0.129941 0.313693,0.129941 0.1225,0 0.233421,-0.0496732 0.313701,-0.129941 0.0514724,-0.0514685 0.0903583,-0.115539 0.111642,-0.187173l0.00113386 0 0 0.466665 -0.00113386 0c-0.0212835,0.0716378 -0.0601693,0.135705 -0.111642,0.187177 -0.0802795,0.0802677 -0.191201,0.129941 -0.313701,0.129941 -0.1225,0 -0.233413,-0.0496732 -0.313693,-0.129941 -0.0168622,-0.0168622 -0.0323701,-0.0350906 -0.0463543,-0.0544724 -0.0139843,0.0193819 -0.0294921,0.0376024 -0.0463543,0.0544685 -0.0802795,0.0802717 -0.191193,0.129945 -0.313685,0.129945 -0.1225,0 -0.233429,-0.0496732 -0.313709,-0.129941 -0.0168622,-0.0168622 -0.0323661,-0.0350827 -0.0463543,-0.0544685 -0.0139882,0.0193858 -0.0294921,0.0376063 -0.0463543,0.0544685 -0.0802795,0.0802677 -0.191205,0.129941 -0.313697,0.129941 -0.1225,0 -0.233421,-0.0496732 -0.313693,-0.129945 -0.0168661,-0.0168661 -0.032374,-0.0350866 -0.0463543,-0.0544685 -0.0139843,0.0193898 -0.0294921,0.0376102 -0.0463543,0.0544724 -0.0802874,0.0802756 -0.191197,0.129941 -0.313697,0.129941 -0.1225,0 -0.233417,-0.0496732 -0.313697,-0.129941 -0.0168622,-0.0168622 -0.0323583,-0.0350827 -0.0463465,-0.0544724 -0.0139921,0.0193898 -0.0294961,0.0376102 -0.0463543,0.0544724 -0.0802756,0.0802677 -0.191201,0.129941 -0.313697,0.129941 -0.122492,0 -0.233413,-0.0496732 -0.313701,-0.129941 -0.0514724,-0.0514724 -0.0903583,-0.115539 -0.111638,-0.187177l-0.00112992 0 0 -0.466665z"/>
  <path class="fil4" d="M1.54666 1.82219l0.00112992 0c0.0212795,0.0716339 0.0601654,0.135701 0.111638,0.187173 0.0802874,0.0802677 0.191209,0.129941 0.313701,0.129941 0.122496,0 0.233421,-0.0496732 0.313697,-0.129941 0.0168583,-0.0168583 0.0323622,-0.0350827 0.0463543,-0.0544724 0.0139882,0.0193898 0.0294843,0.0376142 0.0463465,0.0544724 0.0802795,0.0802677 0.191197,0.129941 0.313697,0.129941 0.1225,0 0.233409,-0.0496654 0.313697,-0.129941 0.0168622,-0.0168583 0.0323701,-0.0350827 0.0463543,-0.0544724 0.0139803,0.0193858 0.0294882,0.0376024 0.0463543,0.0544724 0.0802717,0.0802677 0.191193,0.129941 0.313693,0.129941 0.122492,0 0.233417,-0.0496732 0.313697,-0.129941 0.0168622,-0.0168583 0.0323661,-0.0350827 0.0463543,-0.0544685 0.0139882,0.0193858 0.0294921,0.0376102 0.0463543,0.0544685 0.0802795,0.0802677 0.191209,0.129941 0.313709,0.129941 0.122492,0 0.233406,-0.0496732 0.313685,-0.129941 0.0168622,-0.0168701 0.0323701,-0.0350866 0.0463543,-0.0544724 0.0139843,0.0193858 0.0294921,0.0376142 0.0463543,0.0544724 0.0802795,0.0802677 0.191193,0.129941 0.313693,0.129941 0.1225,0 0.233421,-0.0496732 0.313701,-0.129941 0.0514724,-0.0514724 0.0903583,-0.115539 0.111642,-0.187173l0.00113386 0 0 0.466665 -0.00113386 0c-0.0212835,0.0716378 -0.0601693,0.135705 -0.111642,0.187177 -0.0802795,0.0802677 -0.191201,0.129941 -0.313701,0.129941 -0.1225,0 -0.233413,-0.0496732 -0.313693,-0.129941 -0.0168622,-0.0168622 -0.0323701,-0.0350906 -0.0463543,-0.0544724 -0.0139843,0.0193819 -0.0294921,0.0376024 -0.0463543,0.0544685 -0.0802795,0.0802717 -0.191193,0.129945 -0.313685,0.129945 -0.1225,0 -0.233429,-0.0496732 -0.313709,-0.129941 -0.0168622,-0.0168622 -0.0323661,-0.0350827 -0.0463543,-0.0544724 -0.0139882,0.0193898 -0.0294921,0.0376102 -0.0463543,0.0544724 -0.0802795,0.0802677 -0.191205,0.129941 -0.313697,0.129941 -0.1225,0 -0.233421,-0.0496732 -0.313693,-0.129945 -0.0168661,-0.0168661 -0.032374,-0.0350866 -0.0463543,-0.0544685 -0.0139843,0.0193898 -0.0294921,0.0376102 -0.0463543,0.0544724 -0.0802874,0.0802756 -0.191197,0.129941 -0.313697,0.129941 -0.1225,0 -0.233417,-0.0496732 -0.313697,-0.129941 -0.0168622,-0.0168622 -0.0323583,-0.0350827 -0.0463465,-0.0544724 -0.0139921,0.0193898 -0.0294961,0.0376102 -0.0463543,0.0544724 -0.0802756,0.0802677 -0.191201,0.129941 -0.313697,0.129941 -0.122492,0 -0.233413,-0.0496732 -0.313701,-0.129941 -0.0514724,-0.0514724 -0.0903583,-0.115539 -0.111638,-0.187177l-0.00112992 0 0 -0.466665z"/>
  <path class="fil5" d="M1.54666 4.0491l0.00112992 0c0.0212795,0.0716339 0.0601654,0.135701 0.111638,0.187173 0.0802874,0.0802677 0.191209,0.129941 0.313701,0.129941 0.122496,0 0.233421,-0.0496732 0.313697,-0.129941 0.0168583,-0.0168622 0.0323622,-0.0350827 0.0463543,-0.0544724 0.0139882,0.0193898 0.0294843,0.0376102 0.0463465,0.0544724 0.0802795,0.0802677 0.191197,0.129941 0.313697,0.129941 0.1225,0 0.233409,-0.0496654 0.313697,-0.129941 0.0168622,-0.0168622 0.0323701,-0.0350827 0.0463543,-0.0544724 0.0139803,0.0193858 0.0294882,0.0376024 0.0463543,0.0544685 0.0802717,0.0802717 0.191193,0.129945 0.313693,0.129945 0.122492,0 0.233417,-0.0496732 0.313697,-0.129941 0.0168622,-0.0168622 0.0323661,-0.0350827 0.0463543,-0.0544685 0.0139882,0.0193858 0.0294921,0.0376063 0.0463543,0.0544685 0.0802795,0.0802677 0.191209,0.129941 0.313709,0.129941 0.122492,0 0.233406,-0.0496732 0.313685,-0.129945 0.0168622,-0.0168661 0.0323701,-0.0350827 0.0463543,-0.0544685 0.0139843,0.0193858 0.0294921,0.0376102 0.0463543,0.0544724 0.0802795,0.0802677 0.191193,0.129941 0.313693,0.129941 0.1225,0 0.233421,-0.0496732 0.313701,-0.129941 0.0514724,-0.0514724 0.0903583,-0.115539 0.111642,-0.187173l0.00113386 0 0 0.955374 -3.73334 0 0 -0.955374z"/>
  <path class="fil6" d="M1.54666 3.58447l0.00112992 0c0.0212795,0.0716339 0.0601654,0.135701 0.111638,0.187173 0.0802874,0.0802717 0.191209,0.129945 0.313701,0.129945 0.122496,0 0.233421,-0.0496732 0.313697,-0.129945 0.0168583,-0.0168622 0.0323622,-0.0350787 0.0463543,-0.0544685 0.0139882,0.0193898 0.0294843,0.0376063 0.0463465,0.0544685 0.0802795,0.0802717 0.191197,0.129945 0.313697,0.129945 0.1225,0 0.233409,-0.0496654 0.313697,-0.129945 0.0168622,-0.0168622 0.0323701,-0.0350787 0.0463543,-0.0544685 0.0139803,0.0193819 0.0294882,0.0375984 0.0463543,0.0544646 0.0802717,0.0802756 0.191193,0.129949 0.313693,0.129949 0.122492,0 0.233417,-0.0496732 0.313697,-0.129945 0.0168622,-0.0168622 0.0323661,-0.0350787 0.0463543,-0.0544685 0.0139882,0.0193898 0.0294921,0.0376063 0.0463543,0.0544685 0.0802795,0.0802717 0.191209,0.129945 0.313709,0.129945 0.122492,0 0.233406,-0.0496732 0.313685,-0.129949 0.0168622,-0.0168661 0.0323701,-0.0350827 0.0463543,-0.0544646 0.0139843,0.0193819 0.0294921,0.0376063 0.0463543,0.0544685 0.0802795,0.0802717 0.191193,0.129945 0.313693,0.129945 0.1225,0 0.233421,-0.0496732 0.313701,-0.129945 0.0514724,-0.0514724 0.0903583,-0.115539 0.111642,-0.187173l0.00113386 0 0 0.466665 -0.00113386 0c-0.0212835,0.0716378 -0.0601693,0.135705 -0.111642,0.187173 -0.0802795,0.0802717 -0.191201,0.129945 -0.313701,0.129945 -0.1225,0 -0.233413,-0.0496732 -0.313693,-0.129945 -0.0168622,-0.0168583 -0.0323701,-0.0350827 -0.0463543,-0.0544685 -0.0139843,0.0193858 -0.0294921,0.0376024 -0.0463543,0.0544685 -0.0802795,0.0802717 -0.191193,0.129945 -0.313685,0.129945 -0.1225,0 -0.233429,-0.0496732 -0.313709,-0.129945 -0.0168622,-0.0168583 -0.0323661,-0.0350787 -0.0463543,-0.0544646 -0.0139882,0.0193858 -0.0294921,0.0376063 -0.0463543,0.0544646 -0.0802795,0.0802717 -0.191205,0.129945 -0.313697,0.129945 -0.1225,0 -0.233421,-0.0496732 -0.313693,-0.129945 -0.0168661,-0.0168661 -0.032374,-0.0350827 -0.0463543,-0.0544685 -0.0139843,0.0193898 -0.0294921,0.0376102 -0.0463543,0.0544685 -0.0802874,0.0802795 -0.191197,0.129945 -0.313697,0.129945 -0.1225,0 -0.233417,-0.0496732 -0.313697,-0.129945 -0.0168622,-0.0168583 -0.0323583,-0.0350787 -0.0463465,-0.0544685 -0.0139921,0.0193898 -0.0294961,0.0376102 -0.0463543,0.0544685 -0.0802756,0.0802717 -0.191201,0.129945 -0.313697,0.129945 -0.122492,0 -0.233413,-0.0496732 -0.313701,-0.129945 -0.0514724,-0.0514685 -0.0903583,-0.115535 -0.111638,-0.187173l-0.00112992 0 0 -0.466665z"/>
  <path class="fil7" d="M1.54666 3.11985l0.00112992 0c0.0212795,0.0716339 0.0601654,0.135705 0.111638,0.187177 0.0802874,0.0802677 0.191209,0.129941 0.313701,0.129941 0.122496,0 0.233421,-0.0496732 0.313697,-0.129941 0.0168583,-0.0168622 0.0323622,-0.0350827 0.0463543,-0.0544724 0.0139882,0.0193898 0.0294843,0.0376102 0.0463465,0.0544724 0.0802795,0.0802677 0.191197,0.129941 0.313697,0.129941 0.1225,0 0.233409,-0.0496654 0.313697,-0.129941 0.0168622,-0.0168622 0.0323701,-0.0350827 0.0463543,-0.0544724 0.0139803,0.0193819 0.0294882,0.0376024 0.0463543,0.0544685 0.0802717,0.0802717 0.191193,0.129945 0.313693,0.129945 0.122492,0 0.233417,-0.0496732 0.313697,-0.129941 0.0168622,-0.0168622 0.0323661,-0.0350827 0.0463543,-0.0544724 0.0139882,0.0193898 0.0294921,0.0376102 0.0463543,0.0544724 0.0802795,0.0802677 0.191209,0.129941 0.313709,0.129941 0.122492,0 0.233406,-0.0496732 0.313685,-0.129945 0.0168622,-0.0168661 0.0323701,-0.0350866 0.0463543,-0.0544685 0.0139843,0.0193819 0.0294921,0.0376102 0.0463543,0.0544724 0.0802795,0.0802677 0.191193,0.129941 0.313693,0.129941 0.1225,0 0.233421,-0.0496732 0.313701,-0.129941 0.0514724,-0.0514724 0.0903583,-0.115543 0.111642,-0.187177l0.00113386 0 0 0.466665 -0.00113386 0c-0.0212835,0.0716378 -0.0601693,0.135705 -0.111642,0.187177 -0.0802795,0.0802677 -0.191201,0.129941 -0.313701,0.129941 -0.1225,0 -0.233413,-0.0496732 -0.313693,-0.129941 -0.0168622,-0.0168583 -0.0323701,-0.0350866 -0.0463543,-0.0544724 -0.0139843,0.0193858 -0.0294921,0.0376024 -0.0463543,0.0544724 -0.0802795,0.0802677 -0.191193,0.129941 -0.313685,0.129941 -0.1225,0 -0.233429,-0.0496732 -0.313709,-0.129941 -0.0168622,-0.0168583 -0.0323661,-0.0350827 -0.0463543,-0.0544685 -0.0139882,0.0193858 -0.0294921,0.0376102 -0.0463543,0.0544685 -0.0802795,0.0802677 -0.191205,0.129941 -0.313697,0.129941 -0.1225,0 -0.233421,-0.0496732 -0.313693,-0.129941 -0.0168661,-0.0168701 -0.032374,-0.0350866 -0.0463543,-0.0544724 -0.0139843,0.0193898 -0.0294921,0.0376142 -0.0463543,0.0544724 -0.0802874,0.0802756 -0.191197,0.129941 -0.313697,0.129941 -0.1225,0 -0.233417,-0.0496732 -0.313697,-0.129941 -0.0168622,-0.0168583 -0.0323583,-0.0350827 -0.0463465,-0.0544724 -0.0139921,0.0193898 -0.0294961,0.0376142 -0.0463543,0.0544724 -0.0802756,0.0802677 -0.191201,0.129941 -0.313697,0.129941 -0.122492,0 -0.233413,-0.0496732 -0.313701,-0.129941 -0.0514724,-0.0514724 -0.0903583,-0.115539 -0.111638,-0.187177l-0.00112992 0 0 -0.466665z"/>
  <path class="fil8" d="M1.54666 2.65523l0.00112992 0c0.0212795,0.0716339 0.0601654,0.135705 0.111638,0.187177 0.0802874,0.0802677 0.191209,0.129941 0.313701,0.129941 0.122496,0 0.233421,-0.0496732 0.313697,-0.129941 0.0168583,-0.0168622 0.0323622,-0.0350866 0.0463543,-0.0544764 0.0139882,0.0193898 0.0294843,0.0376142 0.0463465,0.0544764 0.0802795,0.0802677 0.191197,0.129941 0.313697,0.129941 0.1225,0 0.233409,-0.0496654 0.313697,-0.129941 0.0168622,-0.0168622 0.0323701,-0.0350866 0.0463543,-0.0544764 0.0139803,0.0193858 0.0294882,0.0376063 0.0463543,0.0544724 0.0802717,0.0802717 0.191193,0.129945 0.313693,0.129945 0.122492,0 0.233417,-0.0496732 0.313697,-0.129941 0.0168622,-0.0168622 0.0323661,-0.0350866 0.0463543,-0.0544724 0.0139882,0.0193858 0.0294921,0.0376102 0.0463543,0.0544724 0.0802795,0.0802677 0.191209,0.129941 0.313709,0.129941 0.122492,0 0.233406,-0.0496732 0.313685,-0.129945 0.0168622,-0.0168661 0.0323701,-0.0350866 0.0463543,-0.0544724 0.0139843,0.0193858 0.0294921,0.0376142 0.0463543,0.0544764 0.0802795,0.0802677 0.191193,0.129941 0.313693,0.129941 0.1225,0 0.233421,-0.0496732 0.313701,-0.129941 0.0514724,-0.0514724 0.0903583,-0.115543 0.111642,-0.187177l0.00113386 0 0 0.466665 -0.00113386 0c-0.0212835,0.0716378 -0.0601693,0.135705 -0.111642,0.187177 -0.0802795,0.0802677 -0.191201,0.129941 -0.313701,0.129941 -0.1225,0 -0.233413,-0.0496732 -0.313693,-0.129941 -0.0168622,-0.0168622 -0.0323701,-0.0350866 -0.0463543,-0.0544724 -0.0139843,0.0193858 -0.0294921,0.0376024 -0.0463543,0.0544685 -0.0802795,0.0802717 -0.191193,0.129945 -0.313685,0.129945 -0.1225,0 -0.233429,-0.0496732 -0.313709,-0.129941 -0.0168622,-0.0168622 -0.0323661,-0.0350827 -0.0463543,-0.0544685 -0.0139882,0.0193858 -0.0294921,0.0376063 -0.0463543,0.0544685 -0.0802795,0.0802677 -0.191205,0.129941 -0.313697,0.129941 -0.1225,0 -0.233421,-0.0496732 -0.313693,-0.129945 -0.0168661,-0.0168661 -0.032374,-0.0350827 -0.0463543,-0.0544685 -0.0139843,0.0193898 -0.0294921,0.0376102 -0.0463543,0.0544724 -0.0802874,0.0802756 -0.191197,0.129941 -0.313697,0.129941 -0.1225,0 -0.233417,-0.0496732 -0.313697,-0.129941 -0.0168622,-0.0168622 -0.0323583,-0.0350827 -0.0463465,-0.0544724 -0.0139921,0.0193898 -0.0294961,0.0376102 -0.0463543,0.0544724 -0.0802756,0.0802677 -0.191201,0.129941 -0.313697,0.129941 -0.122492,0 -0.233413,-0.0496732 -0.313701,-0.129941 -0.0514724,-0.0514724 -0.0903583,-0.115539 -0.111638,-0.187177l-0.00112992 0 0 -0.466665z"/>
 </g>
</svg>
